<mxfile host="app.diagrams.net" modified="2023-03-28T16:20:18.489Z" agent="Mozilla/5.0 (Windows NT 10.0; Win64; x64) AppleWebKit/537.36 (KHTML, like Gecko) Chrome/110.0.0.0 Safari/537.36 OPR/96.0.0.0" version="21.1.1" etag="YrXIwTT9mT2X1TkjGk0M" type="github">
  <diagram name="Page-1" id="GUmuV8_d1roc_fKv_fhv">
    <mxGraphModel>
      <root>
        <mxCell id="0" />
        <mxCell id="1" parent="0" />
      </root>
    </mxGraphModel>
  </diagram>
</mxfile>
